<?xml version="1.0" standalone="no"?>
<!DOCTYPE svg PUBLIC "-//W3C//DTD SVG 20010904//EN"
 "http://www.w3.org/TR/2001/REC-SVG-20010904/DTD/svg10.dtd">
<svg version="1.0" xmlns="http://www.w3.org/2000/svg"
 width="258.000000pt" height="258.000000pt" viewBox="0 0 258.000000 258.000000"
 preserveAspectRatio="xMidYMid meet">
<metadata>
Created by potrace 1.11, written by Peter Selinger 2001-2013
</metadata>
<g transform="translate(0.000000,258.000000) scale(0.100000,-0.100000)"
fill="#000000" stroke="none">
<path d="M1242 2548 c-14 -14 -15 -47 -3 -68 11 -16 -13 -37 -59 -50 -28 -8
-29 -7 -18 13 6 12 14 36 18 54 10 41 -5 47 -57 23 -32 -14 -44 -27 -58 -63
l-17 -44 -63 -7 c-84 -8 -146 -37 -198 -91 -39 -42 -67 -60 -51 -33 8 13 7 76
-2 90 -9 15 -63 -25 -79 -58 -8 -18 -15 -47 -15 -66 0 -25 -8 -42 -33 -66 -39
-38 -47 -39 -47 -11 0 30 -50 119 -67 119 -8 0 -23 -21 -35 -47 -25 -56 -20
-126 12 -180 l20 -35 -41 -76 c-38 -71 -73 -120 -68 -97 8 45 -28 66 -57 34
-16 -18 -16 -22 -1 -54 9 -19 15 -40 13 -47 -16 -54 -16 -54 -35 -22 -10 16
-25 35 -34 42 -39 33 -55 -88 -18 -139 21 -29 21 -29 2 -66 -46 -92 -61 -226
-32 -282 7 -13 8 -22 1 -26 -5 -3 -10 -2 -10 3 0 6 -15 19 -33 31 -28 18 -33
19 -43 5 -22 -29 8 -111 49 -133 19 -10 27 -26 35 -65 6 -28 9 -52 7 -54 -1
-1 -15 2 -31 9 -35 13 -103 14 -116 1 -11 -11 8 -53 40 -89 25 -29 82 -53 125
-53 32 0 35 -4 71 -75 35 -70 41 -105 17 -105 -16 0 -23 -38 -11 -60 6 -11 19
-20 30 -20 22 0 44 34 34 53 -5 8 -4 9 4 2 6 -6 31 -48 56 -93 l45 -83 -26
-56 c-21 -45 -24 -65 -20 -104 6 -52 35 -111 51 -106 19 6 49 56 60 100 l11
45 37 -33 c28 -26 37 -43 39 -72 4 -62 44 -123 81 -123 18 0 23 26 18 88 -1
18 7 13 52 -31 62 -62 140 -93 244 -97 6 0 18 -18 27 -40 15 -40 65 -80 100
-80 25 0 26 34 2 82 -15 32 -11 34 36 14 45 -19 50 -25 37 -46 -26 -41 22 -99
59 -69 11 10 14 24 9 56 -6 46 -6 46 61 67 22 7 22 7 8 -28 -8 -19 -15 -45
-15 -57 0 -19 4 -21 32 -15 40 8 74 39 90 83 8 22 19 33 33 34 11 0 29 2 40 4
11 2 36 7 55 10 52 10 100 38 150 89 l45 45 -3 -54 c-3 -49 -2 -55 15 -55 35
0 75 54 80 107 4 38 13 56 41 86 l36 37 14 -47 c15 -51 47 -103 63 -103 18 0
49 84 49 131 0 29 -8 62 -24 90 l-23 44 35 70 c33 66 80 137 70 105 -13 -37
32 -66 60 -38 18 18 14 46 -9 69 l-22 22 39 78 c37 77 39 79 74 79 54 0 121
39 147 86 13 21 23 44 23 50 0 18 -53 22 -105 8 l-47 -11 7 46 c5 36 15 54 46
82 21 20 40 43 40 52 5 65 4 72 -17 75 -12 2 -32 -9 -49 -25 l-28 -28 9 35 c5
19 8 69 8 111 0 62 -6 86 -30 140 l-31 64 24 44 c22 42 23 69 7 123 -7 25 -39
7 -60 -33 -8 -17 -18 -29 -21 -26 -9 10 -21 77 -13 77 13 0 22 37 15 59 -12
39 -65 30 -65 -12 0 -22 -18 -13 -30 16 -5 12 -25 49 -44 82 l-34 60 24 47
c14 28 24 64 24 90 0 51 -33 128 -54 128 -17 0 -66 -94 -66 -129 0 -23 -2 -22
-40 17 -32 32 -40 48 -40 77 0 48 -24 91 -60 110 -27 14 -31 14 -36 0 -3 -8
-4 -33 -2 -55 2 -22 2 -40 0 -40 -3 0 -24 20 -48 45 -61 64 -128 92 -226 94
-32 1 -37 5 -43 31 -8 37 -55 86 -89 92 -14 3 -28 3 -31 0 -10 -10 -5 -47 10
-76 19 -37 20 -36 -15 -26 -41 12 -74 36 -61 45 15 9 14 58 -1 73 -7 7 -19 12
-28 12 -9 0 -21 -5 -28 -12z m-92 -62 c0 -14 -47 -66 -60 -66 -16 0 3 41 28
60 29 24 32 24 32 6z m284 -17 c14 -17 26 -35 26 -40 0 -15 -37 8 -54 33 -33
47 -10 53 28 7z m-113 -53 c43 -19 106 -33 169 -36 2 0 -10 -13 -27 -28 -40
-37 -67 -88 -52 -98 6 -3 35 -6 64 -6 64 0 114 26 145 77 19 31 24 34 43 23
12 -6 37 -24 55 -39 29 -26 30 -29 12 -29 -66 0 -123 -75 -98 -128 7 -15 22
-28 32 -30 42 -8 55 61 15 73 -27 9 -24 22 11 40 36 19 55 19 111 0 57 -20
132 -85 186 -162 l43 -60 -43 4 c-55 5 -73 -7 -57 -36 26 -50 87 -85 128 -74
16 4 26 -4 43 -35 13 -22 36 -48 51 -57 16 -9 28 -24 28 -33 0 -14 17 -59 57
-151 5 -11 2 -11 -15 -2 -30 16 -100 21 -111 7 -6 -8 -1 -28 17 -61 32 -58 88
-95 145 -95 l38 0 -2 -60 c-1 -33 -5 -60 -8 -60 -3 0 -17 12 -30 25 -32 34
-90 38 -123 8 -22 -20 -23 -46 -2 -67 22 -22 52 -4 56 34 3 28 4 29 27 17 79
-39 94 -222 30 -366 l-20 -46 -19 43 c-22 48 -42 54 -58 17 -18 -38 -14 -96 7
-131 17 -28 18 -35 5 -59 -8 -15 -14 -34 -14 -41 0 -8 -5 -14 -10 -14 -6 0
-24 -22 -41 -49 -23 -36 -35 -47 -49 -44 -32 9 -89 -17 -116 -52 -14 -19 -23
-38 -20 -43 9 -15 57 -21 84 -11 27 11 27 10 -35 -78 -76 -109 -190 -174 -265
-153 -44 13 -51 30 -22 56 25 24 24 48 -5 63 -25 14 -54 -13 -54 -49 0 -56 37
-99 91 -103 31 -2 23 -17 -27 -52 l-42 -29 -39 46 c-45 52 -76 66 -140 63 -61
-3 -60 -2 -60 -26 0 -12 19 -41 43 -64 l42 -43 -65 -6 c-36 -3 -85 -16 -111
-29 l-46 -22 -53 24 c-30 13 -81 26 -117 29 -52 4 -62 7 -47 15 25 14 46 36
68 71 18 28 18 30 0 43 -55 40 -191 -15 -216 -89 -4 -10 -12 -9 -41 6 -20 10
-44 27 -53 37 -15 17 -14 18 25 29 71 19 109 109 59 144 -28 20 -58 4 -58 -29
0 -24 31 -51 44 -37 4 3 4 -2 0 -11 -17 -46 -94 -53 -171 -16 -50 24 -132 105
-168 166 l-25 42 44 -2 c56 -2 65 7 45 41 -22 41 -78 75 -114 69 -32 -5 -46
10 -117 131 -26 45 -26 46 -7 71 10 14 20 38 23 53 5 31 -10 94 -25 104 -15 9
-46 -23 -54 -54 l-7 -27 -19 37 c-23 45 -49 150 -49 201 0 89 38 167 89 182
20 6 23 4 17 -10 -17 -45 22 -77 54 -45 16 16 18 24 9 44 -24 52 -96 55 -142
6 -15 -17 -28 -25 -28 -18 -5 38 -5 94 -2 104 2 6 24 14 49 17 56 6 103 42
135 101 19 38 21 48 10 55 -16 10 -85 5 -112 -9 -17 -10 -18 -8 -8 17 5 15 14
32 19 38 4 5 15 35 24 66 12 41 23 59 41 67 13 6 33 29 44 50 19 36 24 40 62
40 47 1 86 24 109 66 13 24 13 28 0 37 -8 5 -32 7 -53 4 -20 -3 -37 -2 -37 2
1 19 104 146 141 172 83 61 176 76 209 36 10 -12 8 -18 -10 -33 -18 -14 -22
-25 -16 -45 14 -58 82 -19 72 41 -7 45 -40 80 -85 88 l-35 7 39 34 c21 18 45
33 54 33 9 0 27 -16 41 -35 14 -19 40 -42 59 -51 40 -19 125 -24 142 -7 14 14
-11 62 -51 96 -16 14 -30 27 -30 29 0 2 23 4 50 5 53 2 146 28 155 44 8 12 5
13 66 -15z m276 -77 c-18 -31 -71 -59 -111 -61 -20 -1 -38 1 -41 4 -12 12 60
68 98 76 56 11 70 6 54 -19z m-550 1 c42 -25 60 -57 35 -62 -45 -10 -142 40
-142 73 0 17 75 9 107 -11z m-334 -44 c-3 -14 -14 -33 -24 -42 -18 -16 -19
-16 -19 7 0 28 27 72 39 64 5 -2 6 -16 4 -29z m1145 9 c7 -14 12 -36 12 -48
l-1 -22 -19 24 c-20 23 -28 71 -12 71 5 0 14 -11 20 -25z m-1342 -86 c19 -38
22 -106 4 -139 l-13 -24 -18 35 c-10 19 -18 48 -19 65 0 29 17 94 26 94 2 0
11 -14 20 -31z m1545 4 c17 -43 12 -101 -10 -136 l-20 -31 -10 27 c-16 41 -13
91 6 132 9 19 18 35 20 35 2 0 8 -12 14 -27z m-1487 -248 c-7 -18 -36 -35 -58
-35 -25 0 -19 18 12 34 35 20 53 20 46 1z m1450 -6 c36 -28 33 -39 -7 -27 -40
12 -69 48 -38 48 10 0 30 -9 45 -21z m-1736 -277 c-3 -26 -3 -26 -15 -6 -15
26 -23 70 -15 79 11 10 33 -45 30 -73z m1998 36 c-8 -41 -23 -57 -32 -34 -8
21 11 66 27 66 8 0 9 -11 5 -32z m-1907 -157 c-23 -31 -74 -61 -103 -61 -19 0
-19 2 -5 32 14 30 54 59 93 68 39 8 43 -1 15 -39z m1856 15 c14 -9 32 -30 41
-47 l16 -32 -38 7 c-20 4 -47 15 -60 24 -20 15 -54 62 -54 75 0 9 70 -11 95
-27z m-2036 -322 c18 -40 13 -49 -14 -24 -14 13 -25 32 -25 41 0 25 24 14 39
-17z m2183 14 c-5 -20 -37 -58 -49 -58 -8 0 10 45 25 63 21 24 31 21 24 -5z
m-2183 -222 c29 -15 67 -64 57 -73 -3 -3 -21 -2 -40 1 -37 7 -80 37 -96 67
-10 17 -7 19 20 19 17 0 44 -7 59 -14z m2231 5 c0 -13 -53 -63 -78 -72 -30
-11 -72 -12 -72 0 0 12 52 62 75 72 27 11 75 11 75 0z m-2065 -111 c-2 -11 -7
-26 -12 -32 -12 -21 -21 34 -10 66 10 28 11 28 18 8 4 -11 6 -30 4 -42z m1840
20 c3 -16 2 -37 -4 -47 -9 -16 -10 -16 -19 6 -9 26 -4 71 8 71 5 0 11 -13 15
-30z m-1643 -338 c10 -8 15 -18 13 -23 -8 -13 -59 9 -73 31 -12 19 -11 20 15
14 16 -4 36 -13 45 -22z m1479 9 c-14 -26 -71 -46 -71 -25 0 8 15 21 33 29 43
19 50 18 38 -4z m-1515 -143 c10 -48 7 -78 -12 -123 l-17 -40 -13 30 c-18 41
-17 90 2 131 20 43 30 43 40 2z m1533 -8 c14 -31 16 -51 10 -83 -4 -23 -8 -45
-9 -49 0 -5 -5 -8 -11 -8 -14 0 -39 63 -39 99 0 31 16 81 25 81 3 0 14 -18 24
-40z m-1360 -162 c15 -30 22 -68 12 -68 -14 0 -31 26 -37 58 -8 37 7 42 25 10z
m1154 -46 l-18 -27 -3 23 c-2 13 5 35 15 50 l18 27 3 -23 c2 -13 -5 -35 -15
-50z m-759 30 c6 -10 -38 -54 -71 -71 -22 -11 -83 -15 -83 -5 0 45 132 110
154 76z m466 -22 c16 -12 35 -30 40 -41 10 -17 7 -19 -25 -19 -54 0 -125 45
-125 78 0 21 71 10 110 -18z m-427 -152 c11 -15 18 -30 15 -33 -11 -11 -39 8
-54 37 -14 27 -14 29 2 26 9 -1 26 -15 37 -30z m327 26 c0 -15 -43 -64 -56
-64 -13 0 -13 4 1 29 13 27 27 38 48 40 4 1 7 -2 7 -5z"/>
<path d="M863 2032 l-403 -247 0 -500 1 -500 154 -93 c85 -52 157 -94 162 -93
10 1 9 -6 18 251 4 113 8 234 10 271 2 36 1 70 -3 76 -4 6 -24 18 -45 26 -55
23 -59 45 -54 245 5 166 15 241 18 136 1 -27 3 -71 4 -99 1 -27 3 -65 4 -82 1
-26 5 -33 21 -33 14 0 20 7 21 23 1 12 3 40 4 62 1 22 3 71 4 109 2 135 19 42
20 -112 1 -57 4 -74 17 -79 27 -10 34 17 34 130 0 59 4 107 9 107 5 0 9 -47
10 -105 2 -115 6 -135 26 -135 22 0 24 10 27 128 2 112 17 158 19 60 6 -287 5
-293 -10 -321 -9 -15 -27 -31 -41 -34 -50 -12 -51 -17 -46 -157 3 -72 8 -214
11 -316 4 -102 8 -192 10 -200 5 -15 340 -225 359 -225 5 0 11 33 12 75 1 41
5 174 10 295 11 324 12 316 -17 334 -50 32 -87 80 -95 123 -20 114 -5 198 50
283 60 91 113 97 170 19 49 -69 70 -136 70 -224 0 -104 -29 -158 -110 -206
-21 -12 -21 -15 -10 -324 13 -344 14 -371 18 -375 2 -2 96 54 209 123 l206
127 -2 170 c-1 94 -3 173 -4 178 0 4 -11 7 -24 7 -13 0 -31 6 -41 13 -18 13
-18 30 -13 298 3 156 8 295 11 309 3 14 9 39 12 57 3 18 17 44 31 59 l25 27
21 -22 c22 -21 22 -23 25 -542 2 -474 4 -520 19 -515 14 6 272 163 282 172 9
8 4 995 -5 1003 -15 13 -780 480 -795 485 -8 3 -195 -106 -416 -242z m863 -62
c3 0 10 -5 17 -10 7 -6 79 -52 162 -103 l150 -92 0 -479 0 -479 -115 -73 c-63
-40 -118 -73 -121 -73 -3 -1 -6 217 -6 484 -1 448 -3 488 -20 523 -23 47 -61
62 -97 39 -57 -38 -76 -178 -80 -587 -2 -169 -1 -176 21 -197 12 -13 29 -23
37 -23 9 0 19 -8 24 -17 9 -18 10 -289 2 -296 -30 -22 -342 -208 -345 -205 -5
5 -12 150 -20 417 l-6 196 39 26 c124 84 118 351 -9 479 -64 63 -106 62 -168
-5 -89 -97 -123 -238 -86 -363 15 -49 58 -104 98 -127 10 -5 18 -19 19 -30 2
-41 -21 -597 -25 -601 -3 -3 -284 170 -295 180 -4 4 -7 31 -8 59 -23 631 -23
571 3 575 36 5 71 49 79 98 9 63 -3 370 -16 394 -14 27 -47 26 -56 -2 l-7 -23
-8 23 c-11 29 -47 29 -58 0 l-8 -23 -7 23 c-8 25 -44 30 -52 7 -4 -8 -10 -15
-15 -15 -5 0 -9 7 -9 15 0 21 -46 19 -55 -2 -4 -10 -10 -106 -12 -214 -6 -225
-1 -245 66 -275 22 -10 39 -20 37 -23 -2 -3 -7 -107 -11 -231 -9 -286 -9 -285
-21 -285 -6 0 -65 34 -132 75 l-122 74 0 482 0 481 308 188 c169 104 345 212
391 241 l83 51 225 -138 c124 -77 227 -139 229 -139z"/>
<path d="M1273 2098 c-21 -27 -46 -111 -47 -161 -3 -73 33 -187 59 -187 25 0
55 104 55 188 0 91 -42 192 -67 160z m34 -125 c3 -32 0 -85 -7 -118 l-13 -60
-15 35 c-19 45 -21 145 -3 188 18 44 31 29 38 -45z"/>
<path d="M1067 1867 c-6 -19 18 -92 43 -126 35 -50 145 -96 156 -66 7 18 -27
93 -61 133 -41 49 -128 87 -138 59z m86 -52 c34 -24 85 -100 74 -112 -14 -14
-91 47 -113 89 -28 54 -17 60 39 23z"/>
<path d="M1397 1775 c-64 -22 -97 -61 -121 -141 -5 -15 -2 -24 9 -28 24 -9
116 30 154 66 35 33 66 92 56 108 -9 14 -53 12 -98 -5z m63 -26 c0 -31 -129
-123 -147 -105 -12 11 43 77 79 94 38 19 68 24 68 11z"/>
</g>
</svg>
